<svg xmlns="http://www.w3.org/2000/svg" xmlns:xlink="http://www.w3.org/1999/xlink" width="261" zoomAndPan="magnify" viewBox="0 0 195.75 44.999999" height="60" preserveAspectRatio="xMidYMid meet" version="1.0"><defs><g/><clipPath id="a337d00003"><path d="M 21 37 L 183 37 L 183 44.96875 L 21 44.96875 Z M 21 37 " clip-rule="nonzero"/></clipPath><clipPath id="5d3bc8b2d4"><path d="M 20.296875 39.617188 L 180.957031 25.800781 L 183.011719 49.714844 L 22.355469 63.527344 Z M 20.296875 39.617188 " clip-rule="nonzero"/></clipPath><clipPath id="b4753d11bf"><path d="M 180.640625 25.828125 L 19.984375 39.644531 L 22.039062 63.554688 L 182.695312 49.742188 Z M 180.640625 25.828125 " clip-rule="nonzero"/></clipPath></defs><path fill="#00acf5" d="M 32.089844 1.414062 C 35.242188 1.414062 38.230469 2.121094 40.90625 3.390625 L 38.015625 5.058594 C 37.605469 4.914062 37.191406 4.789062 36.773438 4.671875 C 37.015625 4.894531 37.246094 5.128906 37.46875 5.371094 C 36.691406 5.816406 35.894531 6.308594 35.097656 6.730469 C 34.5625 6.210938 33.996094 5.71875 33.40625 5.253906 L 33.40625 11.421875 C 33.632812 11.402344 33.855469 11.382812 34.070312 11.355469 L 34.070312 12.332031 C 33.003906 13.378906 31.902344 14.390625 30.757812 15.347656 L 30.757812 14.042969 C 28.707031 13.898438 26.675781 13.441406 24.742188 12.664062 C 23.417969 15.367188 22.695312 18.292969 22.597656 21.273438 C 21.128906 22.167969 19.554688 22.867188 17.90625 23.339844 L 14.148438 23.339844 C 14.175781 23.679688 14.210938 24.03125 14.253906 24.359375 C 13.199219 24.523438 12.296875 24.511719 11.589844 24.308594 C 11.507812 23.554688 11.464844 22.785156 11.464844 22.015625 C 11.464844 16.324219 13.773438 11.160156 17.503906 7.429688 C 21.234375 3.722656 26.398438 1.414062 32.089844 1.414062 Z M 52.710938 22.382812 L 49.972656 23.96875 C 49.535156 28.058594 47.734375 31.734375 45.023438 34.535156 C 44.03125 33.703125 42.984375 32.980469 41.890625 32.371094 C 42.859375 30.339844 43.546875 28.164062 43.914062 25.917969 L 43.519531 25.695312 C 42.582031 26.617188 41.613281 27.511719 40.628906 28.378906 C 40.324219 29.363281 39.949219 30.320312 39.5 31.253906 C 38.957031 31.039062 38.402344 30.839844 37.835938 30.679688 C 36.90625 31.40625 35.976562 32.085938 35.046875 32.730469 C 36.117188 32.90625 37.183594 33.195312 38.214844 33.570312 C 36.933594 35.566406 35.3125 37.347656 33.417969 38.832031 L 33.417969 33.8125 C 32.53125 34.382812 31.644531 34.914062 30.777344 35.40625 L 30.777344 38.824219 C 29.925781 38.152344 29.128906 37.425781 28.394531 36.648438 C 27.535156 37.070312 26.6875 37.445312 25.863281 37.785156 C 26.355469 38.347656 26.875 38.894531 27.421875 39.40625 C 26.390625 39.128906 25.398438 38.761719 24.449219 38.3125 C 23.25 38.726562 22.050781 39.066406 20.804688 39.289062 C 24.054688 41.417969 27.929688 42.664062 32.101562 42.664062 C 37.792969 42.664062 42.957031 40.355469 46.6875 36.621094 C 50.332031 32.96875 52.621094 27.941406 52.710938 22.382812 Z M 43.035156 36.308594 C 41.195312 37.722656 39.074219 38.789062 36.773438 39.40625 C 38.257812 37.992188 39.554688 36.398438 40.628906 34.671875 C 41.460938 35.144531 42.277344 35.683594 43.035156 36.308594 Z M 14.15625 20.71875 L 19.984375 20.71875 C 20.160156 17.488281 20.996094 14.375 22.371094 11.535156 C 21.296875 10.925781 20.269531 10.210938 19.292969 9.398438 C 16.386719 12.351562 14.480469 16.316406 14.15625 20.71875 Z M 21.316406 7.644531 C 22.066406 8.242188 22.847656 8.78125 23.660156 9.234375 C 24.707031 7.570312 25.96875 6.042969 27.410156 4.671875 C 25.183594 5.273438 23.117188 6.292969 21.316406 7.644531 Z M 30.777344 11.410156 L 30.777344 5.253906 C 28.921875 6.703125 27.347656 8.429688 26.078125 10.363281 C 27.597656 10.9375 29.175781 11.285156 30.777344 11.410156 Z M 30.777344 11.410156 " fill-opacity="1" fill-rule="evenodd"/><path fill="#ffd736" d="M 54.6875 8.59375 L 45.335938 3.007812 L 36.441406 8.144531 L 36.066406 19.609375 L 45.292969 24.628906 L 54.601562 18.882812 Z M 54.6875 8.59375 " fill-opacity="1" fill-rule="evenodd"/><path fill="#224885" d="M 49.867188 7.097656 L 42.902344 11.117188 L 45.257812 12.476562 L 52.21875 8.457031 Z M 43.386719 24.65625 C 40.164062 27.90625 36.503906 30.867188 32.648438 33.3125 C 28.71875 35.796875 20.386719 40.121094 15.515625 38.3125 C 14.011719 37.757812 13.289062 36.585938 13.414062 34.699219 C 13.863281 35.28125 14.53125 35.59375 15.238281 35.746094 C 18.988281 36.550781 25.210938 34 30.613281 30.75 C 34.992188 28.128906 38.839844 25.050781 40.433594 22.929688 L 38.632812 21.917969 C 34.507812 25.660156 29.800781 28.613281 25.210938 30.699219 C 15.75 34.992188 6.808594 35.601562 4.480469 31.808594 C 2.566406 28.683594 3.605469 23.367188 8.859375 18.285156 C 6.03125 22.320312 5.046875 25.953125 6.566406 28.164062 C 9.269531 32.09375 16.753906 30.179688 23.4375 26.984375 C 28.609375 24.511719 33.289062 21.265625 34.910156 19.367188 C 34.910156 19.367188 34.910156 17.613281 34.910156 16.746094 C 32.039062 19.394531 28.871094 21.800781 25.503906 23.789062 C 18.316406 28.039062 11.847656 29.320312 9.484375 26.492188 C 8.367188 25.15625 8.222656 22.902344 9.816406 20.601562 C 9.234375 22.0625 9.027344 23.269531 9.726562 24.109375 C 11.765625 26.554688 17.738281 25.113281 24.457031 20.96875 C 28.207031 18.660156 31.769531 15.804688 34.882812 12.691406 L 34.882812 8.457031 C 34.882812 8 35.160156 7.597656 35.554688 7.417969 L 44.683594 2.148438 C 45.042969 1.941406 45.472656 1.953125 45.8125 2.148438 L 54.96875 7.4375 C 55.359375 7.644531 55.601562 8.011719 55.601562 8.457031 L 55.601562 19.109375 C 55.601562 19.5625 55.324219 19.964844 54.929688 20.144531 L 45.890625 25.363281 C 45.5 25.640625 44.96875 25.640625 44.578125 25.363281 Z M 53.347656 10.417969 L 53.347656 18.453125 L 46.394531 22.472656 L 46.394531 14.4375 Z M 44.121094 22.472656 L 37.167969 18.453125 L 37.167969 10.417969 L 39.511719 11.769531 L 39.511719 14.902344 L 41.773438 16.207031 L 41.773438 13.074219 L 44.121094 14.425781 Z M 38.292969 8.457031 L 45.257812 4.429688 L 47.609375 5.789062 L 40.648438 9.808594 Z M 38.292969 8.457031 " fill-opacity="1" fill-rule="evenodd"/><g fill="#224885" fill-opacity="1"><g transform="translate(58.99542, 17.778699)"><g><path d="M 2.921875 -11.929688 L 14.070312 -11.929688 L 14.070312 -10.519531 L 15.976562 -10.519531 L 15.976562 -13.425781 L 9.992188 -13.425781 C 9.839844 -13.832031 9.621094 -14.277344 9.414062 -14.617188 L 7.222656 -14.175781 C 7.34375 -13.953125 7.445312 -13.679688 7.546875 -13.425781 L 1.105469 -13.425781 L 1.105469 -10.519531 L 2.921875 -10.519531 Z M 4.910156 -10.28125 L 6.289062 -10.28125 L 6.289062 -9.585938 L 4.910156 -9.585938 Z M 7.714844 -10.28125 L 9.144531 -10.28125 L 9.144531 -9.585938 L 7.714844 -9.585938 Z M 10.585938 -10.28125 L 12.03125 -10.28125 L 12.03125 -9.585938 L 10.585938 -9.585938 Z M 13.578125 -8.445312 L 13.578125 -11.402344 L 3.433594 -11.402344 L 3.433594 -8.445312 Z M 16.027344 -7.9375 L 0.96875 -7.9375 L 0.96875 -6.507812 L 16.027344 -6.507812 Z M 13.714844 -3.007812 C 13.035156 -2.582031 12.253906 -2.160156 11.523438 -1.820312 C 10.945312 -2.160156 10.453125 -2.550781 10.027344 -3.007812 Z M 6.746094 -0.613281 L 6.746094 -1.664062 C 7.375 -1.921875 7.953125 -2.191406 8.480469 -2.5 C 8.871094 -1.953125 9.347656 -1.460938 9.855469 -1.035156 Z M 4.980469 -4.859375 L 11.878906 -4.859375 L 11.878906 -4.128906 L 4.980469 -4.128906 Z M 14.429688 -3.484375 C 14.277344 -3.363281 14.089844 -3.246094 13.902344 -3.128906 L 13.902344 -6 L 3.074219 -6 L 3.074219 -3.007812 L 6.320312 -3.007812 C 4.707031 -2.414062 2.601562 -2.003906 0.578125 -1.820312 C 0.933594 -1.460938 1.410156 -0.78125 1.632812 -0.355469 C 2.703125 -0.492188 3.824219 -0.730469 4.859375 -1.019531 L 4.859375 -0.816406 C 4.859375 -0.222656 4.265625 0.0351562 3.890625 0.152344 C 4.113281 0.476562 4.382812 1.15625 4.488281 1.53125 C 4.929688 1.308594 5.640625 1.136719 9.6875 0.492188 C 9.703125 0.136719 9.824219 -0.492188 9.941406 -0.953125 C 11.320312 0.136719 13.121094 0.832031 15.328125 1.191406 C 15.566406 0.714844 16.027344 0 16.398438 -0.375 C 15.246094 -0.492188 14.191406 -0.714844 13.257812 -1.035156 C 14.140625 -1.425781 15.074219 -1.886719 15.925781 -2.363281 Z M 14.429688 -3.484375 "/></g></g></g><g fill="#224885" fill-opacity="1"><g transform="translate(75.987572, 17.778699)"><g><path d="M 14.546875 -9.125 C 14.121094 -8.363281 13.460938 -7.425781 12.832031 -6.609375 C 12.59375 -7.375 12.390625 -8.191406 12.21875 -9.125 L 12.21875 -9.804688 L 16.382812 -9.804688 L 16.382812 -11.660156 L 14.921875 -11.660156 L 15.890625 -12.59375 C 15.449219 -13.101562 14.566406 -13.832031 13.851562 -14.277344 L 12.746094 -13.257812 C 13.359375 -12.796875 14.089844 -12.167969 14.53125 -11.660156 L 12.21875 -11.660156 L 12.21875 -14.378906 L 10.28125 -14.378906 L 10.28125 -11.660156 L 6.375 -11.660156 L 6.375 -9.804688 L 10.28125 -9.804688 L 10.28125 -5.746094 C 8.871094 -4.570312 7.359375 -3.382812 6.253906 -2.566406 L 6.066406 -3.671875 L 4.332031 -3.144531 L 4.332031 -6.695312 L 5.796875 -6.695312 L 5.796875 -8.546875 L 4.332031 -8.546875 L 4.332031 -11.539062 L 6.050781 -11.539062 L 6.050781 -13.425781 L 0.664062 -13.425781 L 0.664062 -11.539062 L 2.449219 -11.539062 L 2.449219 -8.546875 L 0.746094 -8.546875 L 0.746094 -6.695312 L 2.449219 -6.695312 L 2.449219 -2.601562 C 1.683594 -2.378906 1.003906 -2.191406 0.40625 -2.039062 L 0.832031 -0.117188 C 2.292969 -0.578125 4.128906 -1.15625 5.878906 -1.714844 L 6.816406 -0.289062 C 7.867188 -1.242188 9.09375 -2.414062 10.28125 -3.570312 L 10.28125 -0.78125 C 10.28125 -0.527344 10.164062 -0.441406 9.90625 -0.441406 C 9.652344 -0.425781 8.855469 -0.425781 8.039062 -0.457031 C 8.292969 0.0859375 8.632812 0.953125 8.71875 1.496094 C 9.976562 1.496094 10.84375 1.410156 11.421875 1.070312 C 12.015625 0.746094 12.21875 0.222656 12.21875 -0.796875 L 12.21875 -3.5 C 13 -2.074219 14.003906 -0.917969 15.429688 0.171875 C 15.667969 -0.375 16.214844 -1.019531 16.671875 -1.359375 C 15.226562 -2.378906 14.226562 -3.46875 13.492188 -4.929688 C 14.34375 -5.796875 15.414062 -7.054688 16.296875 -8.207031 Z M 6.476562 -8.363281 C 7.105469 -7.410156 7.785156 -6.117188 8.023438 -5.300781 L 9.671875 -6.066406 C 9.414062 -6.917969 8.683594 -8.125 8.039062 -9.058594 Z M 6.476562 -8.363281 "/></g></g></g><g fill="#224885" fill-opacity="1"><g transform="translate(92.979723, 17.778699)"><g><path d="M 4.996094 -9.484375 L 12.132812 -9.484375 L 12.132812 -8.414062 L 4.996094 -8.414062 Z M 4.996094 -12.050781 L 12.132812 -12.050781 L 12.132812 -10.996094 L 4.996094 -10.996094 Z M 6.152344 -5.761719 C 6.40625 -6.101562 6.644531 -6.441406 6.867188 -6.796875 L 14.191406 -6.796875 L 14.191406 -13.679688 L 3.007812 -13.679688 L 3.007812 -6.796875 L 4.503906 -6.796875 C 3.46875 -5.40625 1.972656 -4.179688 0.425781 -3.363281 C 0.851562 -3.058594 1.613281 -2.3125 1.953125 -1.9375 C 2.839844 -2.480469 3.757812 -3.195312 4.589844 -3.992188 L 6.066406 -3.992188 C 4.996094 -2.480469 3.449219 -1.171875 1.785156 -0.339844 C 2.210938 -0.015625 2.957031 0.695312 3.28125 1.105469 C 5.183594 -0.0664062 7.085938 -1.886719 8.34375 -3.992188 L 9.804688 -3.992188 C 9.042969 -2.210938 7.835938 -0.664062 6.40625 0.355469 C 6.867188 0.628906 7.664062 1.257812 8.003906 1.597656 C 9.566406 0.304688 11.011719 -1.714844 11.898438 -3.992188 L 13.359375 -3.992188 C 13.121094 -1.699219 12.78125 -0.664062 12.457031 -0.355469 C 12.289062 -0.171875 12.132812 -0.152344 11.828125 -0.152344 C 11.523438 -0.152344 10.859375 -0.152344 10.144531 -0.222656 C 10.453125 0.253906 10.65625 0.984375 10.671875 1.496094 C 11.523438 1.511719 12.320312 1.511719 12.796875 1.460938 C 13.324219 1.410156 13.765625 1.257812 14.175781 0.816406 C 14.734375 0.253906 15.125 -1.292969 15.484375 -4.960938 C 15.515625 -5.21875 15.550781 -5.761719 15.550781 -5.761719 Z M 6.152344 -5.761719 "/></g></g></g><g fill="#224885" fill-opacity="1"><g transform="translate(109.971874, 17.778699)"><g><path d="M 8.054688 -8.328125 L 8.023438 -8.445312 C 8.378906 -8.089844 8.753906 -7.546875 8.921875 -7.15625 C 11.164062 -8.191406 11.84375 -9.890625 12.117188 -12.152344 L 13.664062 -12.152344 C 13.527344 -10.332031 13.359375 -9.550781 13.152344 -9.3125 C 13 -9.160156 12.882812 -9.125 12.644531 -9.125 C 12.40625 -9.125 11.898438 -9.144531 11.335938 -9.195312 C 11.589844 -8.734375 11.777344 -8.023438 11.8125 -7.496094 C 12.542969 -7.476562 13.207031 -7.476562 13.613281 -7.546875 C 14.070312 -7.613281 14.445312 -7.75 14.75 -8.140625 C 15.175781 -8.617188 15.398438 -9.941406 15.601562 -12.984375 C 15.636719 -13.222656 15.652344 -13.699219 15.652344 -13.699219 L 8.394531 -13.699219 L 8.394531 -12.152344 L 10.351562 -12.152344 C 10.164062 -10.570312 9.636719 -9.398438 7.9375 -8.652344 C 7.597656 -9.601562 6.917969 -10.859375 6.320312 -11.863281 L 4.792969 -11.214844 C 4.996094 -10.859375 5.199219 -10.503906 5.40625 -10.113281 L 3.910156 -9.6875 L 3.910156 -12.152344 C 5.269531 -12.289062 6.679688 -12.523438 7.816406 -12.832031 L 6.933594 -14.394531 C 5.625 -13.96875 3.671875 -13.628906 1.953125 -13.441406 L 1.953125 -9.960938 C 1.953125 -9.175781 1.546875 -8.734375 1.207031 -8.515625 C 1.496094 -8.207031 1.902344 -7.460938 2.039062 -7.035156 C 2.414062 -7.289062 2.972656 -7.5625 6.117188 -8.53125 C 6.253906 -8.207031 6.375 -7.886719 6.441406 -7.613281 Z M 14.445312 -1.820312 L 14.445312 -7 L 2.769531 -7 L 2.769531 -1.597656 L 4.792969 -1.597656 L 4.792969 -5.300781 L 12.339844 -5.300781 L 12.339844 -1.820312 Z M 9.515625 -4.859375 L 7.394531 -4.859375 L 7.394531 -3.484375 C 7.394531 -2.429688 6.882812 -0.96875 1.019531 -0.015625 C 1.496094 0.390625 2.074219 1.121094 2.328125 1.5625 C 8.515625 0.289062 9.515625 -1.734375 9.515625 -3.433594 Z M 9.058594 -0.851562 C 11.03125 -0.253906 13.714844 0.765625 15.058594 1.511719 L 16.09375 -0.117188 C 14.683594 -0.851562 11.949219 -1.800781 10.0625 -2.292969 Z M 9.058594 -0.851562 "/></g></g></g><g clip-path="url(#a337d00003)"><g clip-path="url(#5d3bc8b2d4)"><g clip-path="url(#b4753d11bf)"><path fill="#09aff4" d="M 182.351562 45.75 C 129.375 30.390625 70.761719 36.09375 21.828125 61.515625 C 70.9375 37.578125 129.097656 33.242188 181.144531 49.78125 Z M 182.351562 45.75 " fill-opacity="1" fill-rule="nonzero"/></g></g></g><g fill="#09aff4" fill-opacity="1"><g transform="translate(58.99542, 35.711536)"><g><path d="M 10.59375 -1.03125 C 9.082031 -0.1875 7.617188 0.234375 6.203125 0.234375 C 4.273438 0.234375 2.828125 -0.519531 1.859375 -2.03125 C 1.128906 -3.132812 0.765625 -4.488281 0.765625 -6.09375 C 0.765625 -7.957031 1.304688 -9.503906 2.390625 -10.734375 C 3.410156 -11.890625 4.707031 -12.46875 6.28125 -12.46875 C 7.726562 -12.46875 9.007812 -11.945312 10.125 -10.90625 L 9.140625 -9.296875 C 8.210938 -9.960938 7.3125 -10.296875 6.4375 -10.296875 C 5.5625 -10.296875 4.835938 -9.890625 4.265625 -9.078125 C 3.691406 -8.265625 3.40625 -7.242188 3.40625 -6.015625 C 3.40625 -4.703125 3.769531 -3.65625 4.5 -2.875 C 5.101562 -2.226562 5.835938 -1.90625 6.703125 -1.90625 C 7.242188 -1.90625 7.738281 -1.992188 8.1875 -2.171875 L 8.1875 -4.703125 L 6.015625 -4.703125 L 6.015625 -6.90625 L 10.59375 -6.90625 Z M 10.59375 -1.03125 "/></g></g></g><g fill="#09aff4" fill-opacity="1"><g transform="translate(70.087536, 35.711536)"><g><path d="M 3.75 -12.46875 L 3.75 0 L 1.3125 0 L 1.3125 -11.1875 Z M 3.75 -12.46875 "/></g></g></g><g fill="#09aff4" fill-opacity="1"><g transform="translate(75.150482, 35.711536)"><g><path d="M 5.109375 -9 C 6.546875 -9 7.664062 -8.492188 8.46875 -7.484375 C 9.132812 -6.628906 9.46875 -5.59375 9.46875 -4.375 C 9.46875 -2.9375 8.972656 -1.773438 7.984375 -0.890625 C 7.160156 -0.140625 6.203125 0.234375 5.109375 0.234375 C 3.828125 0.234375 2.753906 -0.242188 1.890625 -1.203125 C 1.117188 -2.066406 0.734375 -3.125 0.734375 -4.375 C 0.734375 -5.789062 1.164062 -6.9375 2.03125 -7.8125 C 2.8125 -8.601562 3.835938 -9 5.109375 -9 Z M 5.109375 -1.578125 C 6.359375 -1.578125 6.984375 -2.507812 6.984375 -4.375 C 6.984375 -6.300781 6.359375 -7.265625 5.109375 -7.265625 C 3.859375 -7.265625 3.234375 -6.300781 3.234375 -4.375 C 3.234375 -2.507812 3.859375 -1.578125 5.109375 -1.578125 Z M 5.109375 -1.578125 "/></g></g></g><g fill="#09aff4" fill-opacity="1"><g transform="translate(85.353679, 35.711536)"><g><path d="M 3.25 0 L 1.28125 0 L 1.28125 -11.09375 L 3.71875 -12.46875 L 3.71875 -7.796875 C 3.976562 -8.203125 4.351562 -8.519531 4.84375 -8.75 C 5.238281 -8.9375 5.664062 -9.03125 6.125 -9.03125 C 7.425781 -9.03125 8.445312 -8.582031 9.1875 -7.6875 C 9.820312 -6.90625 10.140625 -5.863281 10.140625 -4.5625 C 10.140625 -2.882812 9.664062 -1.613281 8.71875 -0.75 C 7.96875 -0.09375 7.046875 0.234375 5.953125 0.234375 C 4.867188 0.234375 4.03125 -0.132812 3.4375 -0.875 Z M 3.71875 -5.25 L 3.71875 -3.15625 C 3.75 -2.675781 3.941406 -2.273438 4.296875 -1.953125 C 4.648438 -1.628906 5.066406 -1.46875 5.546875 -1.46875 C 6.160156 -1.46875 6.648438 -1.722656 7.015625 -2.234375 C 7.378906 -2.753906 7.5625 -3.46875 7.5625 -4.375 C 7.5625 -5.257812 7.390625 -5.957031 7.046875 -6.46875 C 6.710938 -6.988281 6.25 -7.25 5.65625 -7.25 C 5.113281 -7.25 4.65625 -7.054688 4.28125 -6.671875 C 3.90625 -6.285156 3.71875 -5.8125 3.71875 -5.25 Z M 3.71875 -5.25 "/></g></g></g><g fill="#09aff4" fill-opacity="1"><g transform="translate(96.194574, 35.711536)"><g><path d="M 8.390625 0 L 6.4375 0 L 6.25 -0.828125 C 5.394531 -0.117188 4.53125 0.234375 3.65625 0.234375 C 1.707031 0.234375 0.734375 -0.710938 0.734375 -2.609375 C 0.734375 -3.546875 1.140625 -4.28125 1.953125 -4.8125 C 2.773438 -5.351562 3.992188 -5.625 5.609375 -5.625 L 6.015625 -5.625 L 6.015625 -5.65625 C 6.015625 -6.21875 5.894531 -6.597656 5.65625 -6.796875 C 5.425781 -7.003906 5.007812 -7.109375 4.40625 -7.109375 C 3.550781 -7.109375 2.769531 -6.835938 2.0625 -6.296875 C 1.832031 -6.722656 1.613281 -7.144531 1.40625 -7.5625 C 2.144531 -8.125 2.785156 -8.503906 3.328125 -8.703125 C 3.878906 -8.898438 4.535156 -9 5.296875 -9 C 7.359375 -9 8.390625 -7.710938 8.390625 -5.140625 Z M 5.9375 -4.140625 L 5.640625 -4.140625 C 4.910156 -4.140625 4.316406 -4.007812 3.859375 -3.75 C 3.410156 -3.488281 3.1875 -3.144531 3.1875 -2.71875 C 3.1875 -1.925781 3.535156 -1.53125 4.234375 -1.53125 C 4.660156 -1.53125 5.035156 -1.648438 5.359375 -1.890625 C 5.679688 -2.140625 5.875 -2.453125 5.9375 -2.828125 Z M 5.9375 -4.140625 "/></g></g></g><g fill="#09aff4" fill-opacity="1"><g transform="translate(105.895341, 35.711536)"><g><path d="M 3.75 -12.46875 L 3.75 0 L 1.3125 0 L 1.3125 -11.1875 Z M 3.75 -12.46875 "/></g></g></g><g fill="#09aff4" fill-opacity="1"><g transform="translate(110.958287, 35.711536)"><g><path d="M 3.828125 -10.203125 L 0.296875 -10.203125 L 0.296875 -12.234375 L 10.1875 -12.234375 L 10.1875 -10.203125 L 6.375 -10.203125 L 6.375 0 L 3.828125 0 Z M 3.828125 -10.203125 "/></g></g></g><g fill="#09aff4" fill-opacity="1"><g transform="translate(121.432022, 35.711536)"><g><path d="M 3.375 -8.78125 L 3.609375 -8 C 3.742188 -8.269531 3.992188 -8.503906 4.359375 -8.703125 C 4.722656 -8.898438 5.097656 -9 5.484375 -9 C 6.648438 -9 7.515625 -8.453125 8.078125 -7.359375 L 6.03125 -6.25 C 5.601562 -6.738281 5.148438 -6.984375 4.671875 -6.984375 C 4.234375 -6.984375 3.914062 -6.753906 3.71875 -6.296875 L 3.71875 0 L 1.3125 0 L 1.3125 -8.78125 Z M 3.375 -8.78125 "/></g></g></g><g fill="#09aff4" fill-opacity="1"><g transform="translate(129.490229, 35.711536)"><g><path d="M 8.390625 0 L 6.4375 0 L 6.25 -0.828125 C 5.394531 -0.117188 4.53125 0.234375 3.65625 0.234375 C 1.707031 0.234375 0.734375 -0.710938 0.734375 -2.609375 C 0.734375 -3.546875 1.140625 -4.28125 1.953125 -4.8125 C 2.773438 -5.351562 3.992188 -5.625 5.609375 -5.625 L 6.015625 -5.625 L 6.015625 -5.65625 C 6.015625 -6.21875 5.894531 -6.597656 5.65625 -6.796875 C 5.425781 -7.003906 5.007812 -7.109375 4.40625 -7.109375 C 3.550781 -7.109375 2.769531 -6.835938 2.0625 -6.296875 C 1.832031 -6.722656 1.613281 -7.144531 1.40625 -7.5625 C 2.144531 -8.125 2.785156 -8.503906 3.328125 -8.703125 C 3.878906 -8.898438 4.535156 -9 5.296875 -9 C 7.359375 -9 8.390625 -7.710938 8.390625 -5.140625 Z M 5.9375 -4.140625 L 5.640625 -4.140625 C 4.910156 -4.140625 4.316406 -4.007812 3.859375 -3.75 C 3.410156 -3.488281 3.1875 -3.144531 3.1875 -2.71875 C 3.1875 -1.925781 3.535156 -1.53125 4.234375 -1.53125 C 4.660156 -1.53125 5.035156 -1.648438 5.359375 -1.890625 C 5.679688 -2.140625 5.875 -2.453125 5.9375 -2.828125 Z M 5.9375 -4.140625 "/></g></g></g><g fill="#09aff4" fill-opacity="1"><g transform="translate(139.190996, 35.711536)"><g><path d="M 7.578125 0 L 7.234375 -0.921875 C 7.023438 -0.585938 6.6875 -0.3125 6.21875 -0.09375 C 5.757812 0.125 5.285156 0.234375 4.796875 0.234375 C 3.410156 0.234375 2.359375 -0.222656 1.640625 -1.140625 C 1.035156 -1.898438 0.734375 -2.878906 0.734375 -4.078125 C 0.734375 -5.765625 1.222656 -7.066406 2.203125 -7.984375 C 2.941406 -8.660156 3.820312 -9 4.84375 -9 C 5.738281 -9 6.488281 -8.753906 7.09375 -8.265625 L 7.09375 -11.078125 L 9.53125 -12.421875 L 9.53125 0 Z M 7.09375 -3.34375 L 7.09375 -5.796875 C 7 -6.222656 6.796875 -6.570312 6.484375 -6.84375 C 6.171875 -7.125 5.800781 -7.265625 5.375 -7.265625 C 4.71875 -7.265625 4.195312 -7.003906 3.8125 -6.484375 C 3.425781 -5.972656 3.234375 -5.28125 3.234375 -4.40625 C 3.234375 -2.488281 3.859375 -1.53125 5.109375 -1.53125 C 5.566406 -1.53125 5.992188 -1.710938 6.390625 -2.078125 C 6.796875 -2.441406 7.03125 -2.863281 7.09375 -3.34375 Z M 7.09375 -3.34375 "/></g></g></g><g fill="#09aff4" fill-opacity="1"><g transform="translate(150.031892, 35.711536)"><g><path d="M 9.4375 -3.59375 L 3.40625 -3.59375 C 3.457031 -3 3.695312 -2.503906 4.125 -2.109375 C 4.5625 -1.722656 5.070312 -1.53125 5.65625 -1.53125 C 6.5 -1.53125 7.378906 -1.785156 8.296875 -2.296875 L 8.90625 -1 C 7.976562 -0.175781 6.820312 0.234375 5.4375 0.234375 C 3.9375 0.234375 2.769531 -0.191406 1.9375 -1.046875 C 1.132812 -1.835938 0.734375 -2.9375 0.734375 -4.34375 C 0.734375 -5.726562 1.1875 -6.867188 2.09375 -7.765625 C 2.90625 -8.585938 3.9375 -9 5.1875 -9 C 6.570312 -9 7.648438 -8.53125 8.421875 -7.59375 C 9.097656 -6.789062 9.4375 -5.753906 9.4375 -4.484375 Z M 3.265625 -5.390625 L 7 -5.390625 C 6.9375 -6.648438 6.320312 -7.28125 5.15625 -7.28125 C 4.039062 -7.28125 3.410156 -6.648438 3.265625 -5.390625 Z M 3.265625 -5.390625 "/></g></g></g><g fill="#09aff4" fill-opacity="1"><g transform="translate(160.196442, 35.711536)"><g><path d="M 1.234375 -12.234375 L 9.234375 -12.234375 L 9.234375 -10.203125 L 3.765625 -10.203125 L 3.765625 -7.328125 L 8.328125 -7.328125 L 8.328125 -5.296875 L 3.765625 -5.296875 L 3.765625 -2.03125 L 9.484375 -2.03125 L 9.484375 0 L 1.234375 0 Z M 1.234375 -12.234375 "/></g></g></g><g fill="#09aff4" fill-opacity="1"><g transform="translate(169.974513, 35.711536)"><g><path d="M 8.921875 -12.234375 L 8.921875 -10.125 L 3.515625 -2.03125 L 9.0625 -2.03125 L 9.0625 0 L 0.296875 0 L 0.296875 -1.796875 C 2.160156 -4.546875 4.054688 -7.347656 5.984375 -10.203125 L 0.46875 -10.203125 L 0.46875 -12.234375 Z M 8.921875 -12.234375 "/></g></g></g><g fill="#09aff4" fill-opacity="1"><g transform="translate(179.323534, 35.711536)"><g/></g></g></svg>