<svg xmlns="http://www.w3.org/2000/svg" xmlns:xlink="http://www.w3.org/1999/xlink" height="600" preserveAspectRatio="xMidYMid meet" viewBox="0 0 512 512" width="800">
<g fill="#c7b299">
<svg style="enable-background:new 0 0 595 468.5;" version="1.1" viewBox="0 0 595 468.5" x="0px" xml:space="preserve" y="0px">
<style type="text/css">
	.st0{display:none;}
	.st1{fill-rule:evenodd;clip-rule:evenodd;fill:#00ACF5;}
	.st2{fill-rule:evenodd;clip-rule:evenodd;fill:#FFD736;}
	.st3{fill-rule:evenodd;clip-rule:evenodd;fill:#224885;}
</style>
<g class="st0" id="袜镳噔_x2122_桢_x5F_潆_x2026__x5F_祛眚噫眍钺豚耱">
</g>
<g id="央铋_1">
	<path class="st1" d="M325.9,0c35.2,0,68.6,7.9,98.5,22.1l-32.3,18.6c-4.6-1.6-9.2-3-13.9-4.3c2.7,2.5,5.3,5.1,7.8,7.8   c-8.7,5-17.6,10.5-26.5,15.2c-6-5.8-12.3-11.3-18.9-16.5v68.9c2.5-0.2,5-0.4,7.4-0.7l0,10.9c-11.9,11.7-24.2,23-37,33.7v-14.6   c-22.9-1.6-45.6-6.7-67.2-15.4c-14.8,30.2-22.9,62.9-24,96.2c-16.4,10-34,17.8-52.4,23.1h-42c0.3,3.8,0.7,7.7,1.2,11.4   c-11.8,1.8-21.9,1.7-29.8-0.6c-0.9-8.4-1.4-17-1.4-25.6c0-63.6,25.8-121.3,67.5-163C204.6,25.8,262.3,0,325.9,0L325.9,0z    M556.3,234.3l-30.6,17.7c-4.9,45.7-25,86.8-55.3,118.1c-11.1-9.3-22.8-17.4-35-24.2c10.8-22.7,18.5-47,22.6-72.1l-4.4-2.5   c-10.5,10.3-21.3,20.3-32.3,30c-3.4,11-7.6,21.7-12.6,32.1c-6.1-2.4-12.3-4.6-18.6-6.4c-10.4,8.1-20.8,15.7-31.2,22.9   c12,2,23.9,5.2,35.4,9.4c-14.3,22.3-32.4,42.2-53.6,58.8v-56.1c-9.9,6.4-19.8,12.3-29.5,17.8V418c-9.5-7.5-18.4-15.6-26.6-24.3   c-9.6,4.7-19.1,8.9-28.3,12.7c5.5,6.3,11.3,12.4,17.4,18.1c-11.5-3.1-22.6-7.2-33.2-12.2c-13.4,4.6-26.8,8.4-40.7,10.9   c36.3,23.8,79.6,37.7,126.2,37.7c63.6,0,121.3-25.8,163-67.5C529.7,352.6,555.3,296.4,556.3,234.3L556.3,234.3z M448.2,389.9   c-20.6,15.8-44.3,27.7-70,34.6c16.6-15.8,31.1-33.6,43.1-52.9C430.6,376.9,439.7,382.9,448.2,389.9L448.2,389.9z M125.5,215.7h65.1   c2-36.1,11.3-70.9,26.7-102.6c-12-6.8-23.5-14.8-34.4-23.9C150.4,122.2,129.1,166.5,125.5,215.7L125.5,215.7z M205.5,69.6   c8.4,6.7,17.1,12.7,26.2,17.8c11.7-18.6,25.8-35.7,41.9-51C248.7,43.1,225.6,54.5,205.5,69.6L205.5,69.6z M311.2,111.7V42.9   c-20.7,16.2-38.3,35.5-52.5,57.1C275.7,106.4,293.3,110.3,311.2,111.7z"/>
	<polygon class="st2" points="578.4,80.2 473.9,17.8 374.5,75.2 370.3,203.3 473.4,259.4 577.4,195.2  "/>
	<path class="st3" d="M524.5,63.5l-77.8,44.9l26.3,15.2l77.8-44.9L524.5,63.5L524.5,63.5z M452.1,259.7c-36,36.3-76.9,69.4-120,96.7   c-43.9,27.8-137,76.1-191.4,55.9c-16.8-6.2-24.9-19.3-23.5-40.4c5,6.5,12.5,10,20.4,11.7c41.9,9,111.4-19.5,171.8-55.8   c48.9-29.3,91.9-63.7,109.7-87.4L399,229.1c-46.1,41.8-98.7,74.8-150,98.1c-105.7,48-205.6,54.8-231.6,12.4   c-21.4-34.9-9.8-94.3,48.9-151.1c-31.6,45.1-42.6,85.7-25.6,110.4c30.2,43.9,113.8,22.5,188.5-13.2   c57.8-27.6,110.1-63.9,128.2-85.1c0,0,0-19.6,0-29.3c-32.1,29.6-67.5,56.5-105.1,78.7C172,297.5,99.7,311.8,73.3,280.2   c-12.5-14.9-14.1-40.1,3.7-65.8c-6.5,16.3-8.8,29.8-1,39.2c22.8,27.3,89.5,11.2,164.6-35.1c41.9-25.8,81.7-57.7,116.5-92.5l0-47.3   c0-5.1,3.1-9.6,7.5-11.6l102-58.9c4-2.3,8.8-2.2,12.6,0l102.3,59.1c4.4,2.3,7.1,6.4,7.1,11.4l0,119c0,5.1-3.1,9.6-7.5,11.6   l-101,58.3c-4.4,3.1-10.3,3.1-14.7,0L452.1,259.7L452.1,259.7z M563.4,100.6v89.8l-77.7,44.9v-89.8L563.4,100.6L563.4,100.6z    M460.3,235.3l-77.7-44.9v-89.8l26.2,15.1l0,35l25.3,14.6l0-35l26.2,15.1V235.3L460.3,235.3z M395.2,78.7L473,33.7l26.3,15.2   l-77.8,44.9L395.2,78.7z"/>
</g>
</svg>
</g>
</svg>
